# xmcd
#
# Track frame offsets:
#	150
#	19664
#	39215
#	54540
#	82944
#	114168
#	128780
#	147690
#	194093
#	215493
#	243219
#	270992
#	287046
#	305268
#
# Disc length: 4619 seconds
#
# Revision: 6
# Processed by: cddbd v1.5.2PL0 Copyright (c) Steve Scherf et al.
# Submitted via: EasyCDDAExtractor 10.2.0.1
#
DISCID=c012090e
DTITLE=Van Morrison - A Night In San Francisco [cd1]
DYEAR=1994
DGENRE=Blues
TTITLE0=Did Ye Get Healed-
TTITLE1=It's All In The Game-Make It Real One More Time
TTITLE2=I've Been Working
TTITLE3=I Forgot That Love Existed
TTITLE4=Vanlose Stairway-Trans-Euro Train-Fool For You
TTITLE5=You Make Me Feel So Free
TTITLE6=Beautiful Vision
TTITLE7=See Me Through-Soldier Of Fortune-Thank You Falettinme Be Mice Elf Aga
TTITLE7=i
TTITLE8=Ain't That Loving You Baby
TTITLE9=Stormy Monday-Have You Ever Loved A Woman--No Rollin' Blues
TTITLE10=Help Me
TTITLE11=Good Morning Little Schoolgirl
TTITLE12=Tupelo Honey
TTITLE13=Moondance-My Funny Valentine
EXTD=
EXTT0=
EXTT1=
EXTT2=
EXTT3=
EXTT4=
EXTT5=
EXTT6=
EXTT7=
EXTT8=
EXTT9=
EXTT10=
EXTT11=
EXTT12=
EXTT13=
PLAYORDER=
